<?xml version="1.0" standalone="no"?>
<!DOCTYPE svg PUBLIC "-//W3C//DTD SVG 20010904//EN"
 "http://www.w3.org/TR/2001/REC-SVG-20010904/DTD/svg10.dtd">
<svg version="1.0" xmlns="http://www.w3.org/2000/svg"
 width="700.000000pt" height="700.000000pt" viewBox="0 0 700.000000 700.000000"
 preserveAspectRatio="xMidYMid meet">
<metadata>
Created by potrace 1.11, written by Peter Selinger 2001-2013
</metadata>
<g transform="translate(0.000000,700.000000) scale(0.100000,-0.100000)"
fill="#000000" stroke="none">
<path d="M6159 6996 c-2 -2 -46 -6 -97 -10 -306 -21 -741 -112 -1099 -231
-286 -95 -488 -197 -720 -362 -116 -83 -168 -127 -289 -248 -238 -237 -427
-526 -558 -850 l-44 -110 -169 -1 c-147 -1 -274 -8 -330 -18 -10 -2 -52 -9
-93 -16 -601 -96 -1139 -472 -1380 -964 -110 -226 -155 -424 -155 -686 1 -222
28 -398 90 -583 32 -93 35 -111 23 -126 -7 -10 -56 -74 -109 -142 -181 -234
-430 -606 -561 -838 -92 -163 -134 -241 -219 -411 -112 -225 -206 -434 -273
-605 -26 -66 -53 -133 -60 -150 -7 -16 -31 -88 -54 -160 -71 -226 -77 -316
-26 -402 32 -56 94 -87 157 -80 111 12 145 48 407 421 86 122 201 284 255 360
55 77 111 156 125 175 81 117 647 843 671 861 3 3 30 34 60 70 53 64 64 77
111 132 13 15 48 56 78 92 30 36 58 65 62 65 4 1 45 -20 91 -47 71 -40 118
-62 242 -112 41 -17 132 -40 175 -46 25 -3 63 -10 85 -14 44 -10 329 -6 385 5
63 12 191 46 233 61 23 9 51 19 62 23 71 27 234 113 315 166 119 78 203 145
302 241 l78 75 97 -54 c152 -85 478 -227 523 -227 9 0 20 -3 24 -7 3 -4 12 -8
19 -10 7 -2 72 -19 145 -38 74 -19 162 -39 195 -45 34 -5 74 -12 89 -15 220
-42 685 -41 918 1 14 2 41 7 60 10 19 3 64 12 100 20 216 48 248 62 282 121
44 75 11 185 -67 223 -53 26 -76 25 -193 -4 -53 -14 -113 -28 -132 -31 -19 -3
-60 -10 -90 -15 -148 -25 -236 -32 -397 -33 -123 0 -283 8 -345 18 -13 2 -45
6 -73 10 -27 3 -68 10 -90 15 -22 5 -54 11 -71 14 -64 12 -223 56 -324 91
-215 75 -415 177 -626 318 l-111 74 -67 -87 c-180 -236 -447 -440 -702 -536
-56 -21 -86 -29 -179 -50 -76 -17 -221 -22 -320 -10 -254 30 -622 268 -820
531 -144 191 -196 316 -220 530 -6 54 -6 255 0 295 2 14 6 48 10 75 21 150
118 377 217 509 192 255 453 436 788 545 67 22 208 56 270 65 191 29 480 29
649 0 97 -16 89 -23 132 116 21 69 48 150 60 180 206 534 577 947 1065 1186
72 35 135 64 140 64 5 0 22 7 37 15 46 24 271 94 452 140 219 56 385 88 550
109 22 3 63 8 91 11 122 15 562 22 654 10 19 -2 73 -6 120 -9 101 -5 136 7
177 60 23 30 28 47 28 94 0 90 -55 154 -142 165 -21 3 -56 7 -78 10 -45 6
-611 16 -616 11z m-4579 -4454 c0 -4 29 -37 65 -74 36 -37 65 -70 65 -74 0 -5
-88 -107 -145 -170 -11 -12 -25 -29 -212 -254 -70 -86 -141 -173 -158 -194
-16 -22 -52 -67 -80 -101 -27 -35 -81 -104 -120 -155 -38 -50 -78 -101 -87
-113 -18 -23 -223 -300 -251 -339 -9 -13 -14 -16 -12 -8 14 41 248 494 295
570 5 8 48 80 96 160 108 180 262 408 411 608 101 135 133 170 133 144z"/>
<path d="M6077 5583 c-2 -1 -28 -8 -58 -14 -30 -6 -64 -12 -76 -15 -12 -2 -35
-9 -50 -15 -16 -6 -29 -10 -31 -9 -8 5 -162 -38 -297 -82 -286 -94 -709 -305
-919 -460 -103 -75 -100 -204 5 -276 28 -20 44 -23 89 -20 46 3 67 12 130 54
246 165 553 314 845 407 140 45 199 61 364 96 146 32 176 47 205 105 43 87 8
185 -79 222 -31 12 -118 17 -128 7z"/>
<path d="M4288 4749 c-66 -34 -99 -116 -77 -190 15 -48 78 -108 117 -111 92
-5 122 7 167 66 101 132 -57 312 -207 235z"/>
<path d="M6055 4405 c-33 -8 -91 -22 -130 -31 -312 -71 -669 -205 -995 -372
-168 -87 -204 -113 -224 -162 -20 -51 -20 -79 0 -129 23 -58 82 -96 148 -95
42 1 68 10 151 56 348 190 681 313 1149 422 41 9 80 26 94 39 77 72 72 188
-11 251 -43 33 -104 40 -182 21z"/>
<path d="M2027 3946 c-118 -44 -186 -151 -174 -272 26 -253 370 -318 488 -93
31 59 33 175 5 233 -24 48 -76 99 -123 121 -49 24 -148 29 -196 11z"/>
<path d="M4425 3725 c-43 -20 -59 -35 -80 -75 -28 -54 -24 -121 9 -164 40 -53
70 -69 130 -70 68 0 117 30 145 88 32 64 25 125 -19 179 -37 46 -130 67 -185
42z"/>
</g>
</svg>
